<?xml version="1.0" encoding="UTF-8" standalone="no"?>
<svg
   version="1.1"
   id="Layer_1"
   x="0px"
   y="0px"
   width="100%"
   viewBox="0 0 560 480"
   enable-background="new 0 0 560 480"
   xml:space="preserve"
   sodipodi:docname="Screenshot 2024-04-13 at 11.11.23.svg"
   inkscape:version="1.3.2 (091e20e, 2023-11-25)"
   xmlns:inkscape="http://www.inkscape.org/namespaces/inkscape"
   xmlns:sodipodi="http://sodipodi.sourceforge.net/DTD/sodipodi-0.dtd"
   xmlns:xlink="http://www.w3.org/1999/xlink"
   xmlns="http://www.w3.org/2000/svg"
   xmlns:svg="http://www.w3.org/2000/svg"><defs
   id="defs12"><linearGradient
     id="linearGradient353"
     inkscape:collect="always"><stop
       style="stop-color:#253c26;stop-opacity:1;"
       offset="0"
       id="stop353" /><stop
       style="stop-color:#26865b;stop-opacity:1;"
       offset="0.5"
       id="stop355" /><stop
       style="stop-color:#a8cebd;stop-opacity:1;"
       offset="1"
       id="stop354" /></linearGradient><linearGradient
     inkscape:collect="always"
     xlink:href="#linearGradient353"
     id="linearGradient354"
     x1="70.84388"
     y1="236.08867"
     x2="481.45551"
     y2="236.08867"
     gradientUnits="userSpaceOnUse" /></defs><sodipodi:namedview
   id="namedview12"
   pagecolor="#ffffff"
   bordercolor="#000000"
   borderopacity="0.25"
   inkscape:showpageshadow="2"
   inkscape:pageopacity="0.0"
   inkscape:pagecheckerboard="0"
   inkscape:deskcolor="#d1d1d1"
   inkscape:zoom="0.72733595"
   inkscape:cx="605.63486"
   inkscape:cy="220.66832"
   inkscape:window-width="1472"
   inkscape:window-height="806"
   inkscape:window-x="724"
   inkscape:window-y="2004"
   inkscape:window-maximized="0"
   inkscape:current-layer="Layer_1" />











<g
   id="g353"
   style="fill:url(#linearGradient354)"><path
     fill="#000000"
     opacity="1.000000"
     stroke="none"
     d=" M242.605652,227.720886   C260.213654,223.669891 269.416290,211.217377 275.844391,196.130829   C278.008453,191.051727 273.441162,192.342758 271.022369,192.283401   C250.688431,191.784561 234.334335,183.492584 222.316727,167.112808   C213.952393,155.712357 210.148743,142.446228 207.635468,128.721359   C205.384216,116.427376 203.186386,104.114494 195.414352,93.697418   C190.272522,86.805664 183.907959,81.781830 175.638504,79.178276   C172.458527,78.177086 169.451355,78.329094 166.338074,79.308678   C156.623337,82.365395 153.655685,89.278244 158.375610,98.329369   C159.990311,101.425751 161.960068,104.336090 163.745880,107.344330   C166.776077,112.448776 167.497879,117.684845 164.206146,122.923920   C160.839890,128.281601 155.908295,130.368195 149.656662,129.397354   C147.106873,129.001404 144.881210,129.082245 143.012283,131.530136   C125.076553,155.022125 114.474548,181.422485 114.655525,211.023224   C114.853203,243.355667 127.404510,271.280975 149.640198,294.685913   C155.823502,301.194366 162.777420,306.970886 169.381210,313.079529   C170.114227,313.757599 170.943375,314.346130 171.601334,315.088409   C173.933899,317.719940 175.012268,320.561951 172.197540,323.491974   C169.599030,326.196960 166.731430,325.604828 164.156265,323.471619   C159.794968,319.858795 155.505081,316.153961 151.292831,312.368011   C134.186493,296.992889 116.849258,281.791992 102.505043,263.705872   C81.880463,237.701050 70.036247,208.151688 70.886765,174.697250   C71.523369,149.656723 79.204552,126.586266 95.765663,107.113365   C97.158073,105.476135 98.779839,103.996490 100.460846,102.650749   C103.137436,100.507996 106.004753,100.240417 108.533104,102.843872   C111.174713,105.563950 110.404221,108.361732 108.043083,110.796509   C101.852219,117.180481 96.437881,124.128494 92.590912,132.175095   C78.877693,160.858643 78.794601,189.996323 90.048965,219.390488   C95.255760,232.989624 102.399300,245.515381 112.525925,257.798889   C107.078735,241.932236 103.358643,227.114197 103.497276,211.381699   C103.759796,181.589203 112.773537,154.792526 129.545258,130.407623   C131.148605,128.076462 132.957840,125.887436 134.578979,123.567780   C135.526993,122.211281 137.084122,120.681381 137.005768,119.307137   C136.597382,112.145721 140.766983,106.414955 142.928543,99.997734   C139.363876,98.254494 135.833572,98.564232 132.401978,98.255547   C130.608582,98.094223 128.500336,98.289566 127.693153,96.176071   C126.802139,93.843056 128.853485,92.935585 130.280258,91.915886   C133.121918,89.884987 135.916031,87.712975 138.995972,86.111008   C142.065567,84.514420 142.526733,82.967270 140.828720,79.905197   C136.364517,71.854782 135.956757,63.508549 139.657959,54.945194   C143.002304,47.207432 145.655518,46.074703 153.195724,49.903000   C154.806030,47.094212 156.367203,44.220501 158.073502,41.435722   C159.916168,38.428375 162.358307,36.183529 166.218903,36.850491   C169.734253,37.457806 170.953827,40.128757 171.503998,43.307888   C171.602158,43.875038 172.165909,44.361614 172.544067,44.929527   C175.009521,44.093868 175.757675,41.887245 177.041519,40.244595   C179.315338,37.335327 181.932739,34.846230 185.867599,35.985111   C189.731186,37.103367 190.174194,40.633327 190.336624,44.081600   C190.397171,45.367107 190.068695,46.756245 191.186646,47.876698   C193.972061,48.140385 195.161652,45.704376 197.017914,44.493820   C201.791275,41.380867 205.584045,42.469055 207.827789,47.716206   C211.843918,57.108143 209.431915,69.272583 202.150833,76.462021   C201.223312,77.377861 199.913467,77.972954 199.479813,79.691101   C199.772675,80.216843 200.050262,81.023140 200.573944,81.609718   C210.487488,92.714272 214.931351,106.121941 217.348297,120.496056   C219.451462,133.003998 222.471146,145.239273 228.934219,156.408386   C239.389832,174.477158 257.827942,181.238617 276.188385,180.604935   C279.935699,180.475616 280.540344,178.052872 280.821899,174.842499   C282.084625,160.443832 277.220428,147.665298 270.860779,135.207458   C259.805664,113.551651 242.575211,98.936089 219.993958,90.379570   C218.437668,89.789856 216.799072,89.394440 215.289948,88.708145   C212.556931,87.465263 210.184906,85.678551 211.108536,82.250931   C212.092484,78.599464 214.974121,77.290916 218.506485,77.954575   C224.447205,79.070724 230.052917,81.387711 235.300247,84.240631   C267.597321,101.800293 286.917175,128.506393 291.863495,165.234940   C292.304108,168.506516 291.410828,171.899109 292.743744,175.124023   C295.443359,176.105453 297.286102,174.250031 299.180542,173.158325   C305.275665,169.645966 310.613617,165.152481 315.585602,160.164032   C318.036285,157.705200 320.865631,154.980270 324.653503,158.088898   C327.474731,160.404236 327.017029,164.473984 323.619446,168.182632   C315.625519,176.908432 306.363556,183.896042 295.147278,187.898483   C291.248932,189.289581 289.420837,191.706772 288.183868,195.542328   C282.558533,212.985199 273.006714,227.627197 255.721542,235.346405   C226.660049,248.324783 196.022903,234.826492 185.874756,200.644287   C184.067078,194.555435 183.224442,188.291061 183.654724,181.892761   C183.883209,178.495132 184.649689,175.328720 188.573395,174.863770   C192.959686,174.343979 194.320480,177.709366 194.858536,181.141495   C195.806549,187.188858 195.012497,193.391205 197.207489,199.379639   C201.520981,211.147873 208.320999,220.514343 220.146027,225.663269   C227.290421,228.774139 234.659210,228.962845 242.605652,227.720886  M179.391327,53.837509   C177.289948,55.985882 175.210175,58.160702 172.037430,58.693806   C168.427063,59.300438 166.654236,55.864910 163.417679,54.514618   C160.969101,61.516376 157.108658,65.976143 149.365082,61.967602   C147.801682,64.349716 147.901703,66.527122 148.066925,68.652870   C148.455490,73.651764 150.109299,74.505417 154.417679,72.158699   C156.598923,70.970612 158.788757,69.747131 161.095276,68.849480   C169.013092,65.768051 176.793442,67.094246 184.441620,69.959335   C188.269913,71.393456 191.677353,70.968834 194.493301,67.943283   C197.076385,65.167915 199.495071,62.234161 198.148911,57.955368   C196.096695,57.821831 194.737457,58.899506 193.249832,59.561367   C187.048645,62.320351 184.199966,61.262764 181.384750,55.137981   C181.068344,54.449612 181.048920,53.401913 179.391327,53.837509  M149.330002,112.933357   C148.231247,114.910652 148.070480,116.674835 150.420685,117.903145   C151.774078,118.610481 153.181168,118.538536 153.915558,117.247787   C155.701080,114.109566 153.419891,112.177299 151.789749,110.141747   C150.318771,110.458794 150.224442,111.634171 149.330002,112.933357  z"
     id="path1"
     style="fill:url(#linearGradient354)" /><path
     fill="#000000"
     opacity="1.000000"
     stroke="none"
     d=" M366.636200,341.659851   C359.705231,347.682861 353.057129,353.490021 346.383545,359.267700   C336.118622,368.154633 327.841858,366.088898 322.991699,353.394318   C318.628296,341.973663 320.756897,330.761017 324.419342,319.699402   C329.451813,304.499939 339.255798,292.704010 351.342773,282.569397   C355.423126,279.148132 359.369659,275.564453 363.314758,271.985962   C365.161011,270.311340 366.241577,268.565430 364.367188,265.961182   C362.326477,263.125885 364.979492,261.115723 366.760956,258.690308   C355.264404,248.942398 342.503052,243.861557 327.599457,245.807037   C323.002045,246.407181 320.085785,245.348450 317.349670,241.694717   C312.418823,235.110123 305.936829,230.751968 297.333435,231.722168   C290.340088,232.510803 284.715027,237.840363 283.454437,243.759369   C281.906311,251.028580 285.521973,260.171570 291.869049,264.368652   C296.710968,267.570496 301.940186,269.522736 307.920563,267.931915   C308.871460,267.678955 309.902527,267.708038 310.899078,267.649963   C313.524902,267.496918 316.137238,267.708618 317.003845,270.716827   C317.937714,273.958405 316.227997,276.259460 313.456604,277.634949   C307.989960,280.348114 302.166504,280.891327 296.483429,278.767578   C292.557434,277.300476 289.507019,277.969147 286.263794,280.273987   C281.083130,283.955719 275.213776,285.587402 268.832397,285.376617   C262.839081,285.178619 256.840118,285.131653 250.849045,284.886658   C224.668259,283.816101 193.743835,309.766571 194.292831,342.673340   C194.480576,353.926300 199.754959,362.362518 209.052536,368.378174   C221.317703,376.313873 235.000427,379.372101 249.404205,379.666321   C267.221252,380.030334 285.066620,379.152405 302.855530,380.693268   C323.483948,382.480072 340.467804,390.349243 350.211456,409.837189   C351.319061,412.052460 352.130005,414.464783 352.727753,416.872833   C353.351227,419.384552 352.368011,421.610748 350.049927,422.770172   C347.562073,424.014435 345.131622,423.540741 343.353149,421.253082   C342.547180,420.216370 341.836578,419.041901 341.361572,417.821411   C336.778290,406.045685 327.484283,399.481659 316.295593,394.955261   C313.380524,393.776001 310.984039,394.206116 308.463654,396.238129   C298.480743,404.287079 290.286652,413.784515 283.991272,424.973999   C282.204895,428.149109 280.138580,431.253784 277.724518,433.967133   C274.536652,437.550018 270.659576,437.283539 268.132080,433.226990   C263.196838,425.305908 258.389618,417.329529 252.335251,410.169800   C250.244339,407.697144 250.246979,404.874451 252.745972,402.562775   C255.296494,400.203430 257.995270,400.831451 260.406799,402.857300   C264.273132,406.105225 267.224823,410.137939 269.874084,414.402588   C270.822845,415.929901 271.779327,417.452362 273.189484,419.708527   C280.030273,410.033691 286.304199,400.725098 294.306793,392.005768   C290.395538,392.005768 286.483246,391.947418 282.573181,392.015839   C265.418579,392.316010 248.275726,392.575897 231.296387,389.356323   C219.164429,387.055847 207.781769,382.932892 198.223755,374.960114   C183.556839,362.725647 179.953064,346.475403 184.223953,328.823944   C191.396652,299.179260 210.480820,280.952087 240.357544,274.403839   C247.731644,272.787598 255.298691,273.680328 262.788391,273.833282   C266.777527,273.914764 270.818420,274.414612 274.729187,273.344513   C279.675842,271.990906 280.438599,270.234802 277.602783,265.961151   C272.664825,258.519623 270.666656,250.710892 272.645386,241.784531   C275.178650,230.356583 293.317047,212.721954 304.835358,211.000214   C314.105621,209.614502 324.917084,215.203690 329.657104,225.224258   C332.606750,231.459915 336.195038,234.489914 343.227936,235.343338   C355.401550,236.820541 366.039917,242.301575 374.991364,250.896454   C382.357758,257.969421 383.046906,262.824829 377.877777,271.661194   C373.132477,279.773010 366.016602,285.542847 358.884705,291.298401   C345.789185,301.866669 336.151367,314.643829 332.844818,331.525055   C331.808868,336.813995 331.730591,342.108002 333.088257,347.366180   C334.532349,352.958984 335.977692,353.463867 340.335052,349.680176   C351.779083,339.742737 363.125580,329.692719 374.594299,319.784027   C383.920258,311.726624 393.365356,303.807190 402.763489,295.833466   C403.397919,295.295227 404.064575,294.790771 404.745483,294.312317   C407.459259,292.405457 410.352295,291.626556 412.831177,294.388885   C415.404205,297.256195 414.802551,300.301666 412.062042,302.761078   C407.229919,307.097595 402.292236,311.317932 397.353668,315.534119   C387.220764,324.184814 377.058075,332.800629 366.636200,341.659851  z"
     id="path2"
     style="fill:url(#linearGradient354)" /><path
     fill="#000000"
     opacity="1.000000"
     stroke="none"
     d=" M327.149841,68.752991   C333.322479,76.164848 338.372803,76.763283 345.688446,71.237556   C358.060699,61.892426 380.250031,61.434566 393.185272,71.450592   C402.039246,78.306427 411.763489,73.065994 414.382172,64.234009   C415.759033,59.590221 416.545013,54.872044 416.899567,50.029484   C417.126984,46.923508 417.495575,43.399410 421.691223,42.879513   C425.661194,42.387589 427.099213,45.270245 428.508240,48.267639   C435.006226,62.090767 438.721466,76.130867 431.728271,91.229454   C435.699677,92.652496 439.258606,93.899216 442.792511,95.213280   C443.722290,95.559029 444.597076,96.074654 445.459076,96.577423   C456.436615,102.979919 457.338684,107.185699 450.061798,117.398842   C440.955780,130.179184 429.231171,136.865753 413.175598,133.047134   C410.058350,132.305725 409.358063,133.825684 408.728455,136.109299   C405.624115,147.369186 403.434937,158.520279 405.301331,170.486954   C408.091309,188.375137 393.832306,200.726822 376.268402,196.417709   C371.125641,195.155975 366.181183,195.160034 361.020782,196.505753   C344.513733,200.810394 329.098694,187.052551 332.224518,170.315536   C334.413574,158.594177 332.569366,147.518265 329.737854,136.322586   C329.099762,133.799530 327.868988,133.048691 325.466919,133.528931   C304.953430,137.630127 292.600342,124.567993 285.099823,110.365570   C283.512756,107.360451 284.592010,104.907631 286.700836,102.680405   C291.542877,97.566490 297.456787,94.310089 304.306122,92.833290   C306.666138,92.324440 308.172180,91.629150 306.923859,88.895172   C300.787262,75.455421 304.729614,62.819477 310.232422,50.424938   C311.671692,47.183132 312.333008,42.350586 317.654968,43.093903   C322.937775,43.831749 322.257996,48.549099 322.826355,52.131424   C323.710968,57.707214 323.879730,63.429340 327.149841,68.752991  M395.653931,143.290070   C399.755554,130.101196 400.718384,116.934715 395.769165,103.683502   C394.914276,101.394531 394.870667,98.786018 394.565796,96.311127   C393.436829,87.145935 389.430756,80.117950 380.069458,77.361282   C372.367340,75.093193 364.599304,75.269005 356.980560,77.859138   C350.820435,79.953369 346.994965,84.344040 345.451355,90.622490   C344.501709,94.485123 344.541229,98.759338 342.876740,102.247589   C336.868439,114.839119 338.027130,127.259781 341.841827,140.139999   C344.615631,149.505630 346.865936,159.152924 343.484863,169.065674   C342.824554,171.001587 343.121185,173.393982 343.433228,175.508408   C344.633972,183.644104 351.827026,188.008820 359.509674,185.259796   C366.104431,182.900040 372.530151,183.332672 379.044525,185.616135   C384.894226,187.666550 390.341309,185.316528 393.318176,179.841492   C395.361115,176.084137 395.523407,171.803955 394.392242,168.149109   C391.823853,159.850464 393.350250,152.037521 395.653931,143.290070  M421.461884,122.839973   C429.392639,122.851570 434.817596,118.384666 439.360321,112.580376   C442.550476,108.504242 442.112549,107.346375 437.490692,105.203979   C429.381256,101.444954 422.256378,104.030411 414.683563,107.552673   C409.712067,109.865013 408.771881,112.338264 410.218903,117.015053   C411.879028,122.380539 416.324402,122.366760 421.461884,122.839973  M328.789062,113.032608   C329.121735,111.344742 329.396271,109.871910 327.159210,109.017464   C324.371948,107.952881 321.755005,106.447060 319.048279,105.166107   C312.632965,102.130066 306.431915,103.171326 300.324249,106.159645   C298.177734,107.209877 297.151001,108.495636 298.787720,110.822533   C302.096558,115.526726 305.917450,119.634224 311.369843,121.865959   C320.523651,125.612740 327.050598,122.551544 328.789062,113.032608  M418.002716,90.476250   C422.600708,84.929977 425.267059,78.806870 424.031250,71.451744   C420.333038,79.003365 414.911133,84.233658 406.680389,86.192795   C404.871735,86.623306 404.019714,87.752960 404.464264,89.431488   C405.164856,92.076637 404.914246,95.086876 407.113342,97.312943   C411.742981,97.009697 414.559021,93.879303 418.002716,90.476250  M330.098022,85.591614   C323.016815,83.316963 318.733215,78.143005 315.878815,70.807533   C313.409485,82.137566 322.063293,95.817291 331.636688,96.846550   C333.154907,95.267990 332.610748,93.078331 333.235352,91.225632   C334.072937,88.741112 333.964661,86.585907 330.098022,85.591614  z"
     id="path3"
     style="fill:url(#linearGradient354)" /><path
     fill="#000000"
     opacity="1.000000"
     stroke="none"
     d=" M432.973816,265.583496   C433.248108,259.240997 436.664612,254.276810 438.242493,248.683319   C446.576477,219.139725 439.765656,193.152313 420.411926,169.953079   C418.066437,167.141586 415.497467,164.513367 413.209473,161.658020   C411.067627,158.985016 410.872589,156.150528 413.547363,153.638062   C416.225159,151.122726 418.864380,152.135498 421.076874,154.262207   C438.974335,171.465927 450.428741,191.860580 452.436218,217.069519   C452.921783,223.166519 452.254272,229.233246 452.518280,236.205353   C461.742584,220.855560 467.547974,205.261780 469.718750,188.366653   C472.678955,165.327301 467.411285,144.122223 455.382202,124.435707   C454.777039,123.445320 454.218079,122.415016 453.753967,121.352470   C452.654846,118.836105 452.558624,116.431465 455.138611,114.721748   C457.726654,113.006737 460.316010,113.343063 462.379974,115.541222   C466.058899,119.459389 468.793976,124.061829 470.911987,128.967819   C488.949615,170.748810 483.201813,210.099762 458.573547,247.430893   C453.890656,254.529099 448.464325,261.088104 442.498901,267.146027   C438.505432,271.201355 436.499146,270.818909 432.973816,265.583496  z"
     id="path4"
     style="fill:url(#linearGradient354)" /><path
     fill="#000000"
     opacity="1.000000"
     stroke="none"
     d=" M277.225128,334.079163   C279.275269,342.598694 274.762390,348.725677 270.512878,355.108551   C273.440704,357.508362 278.041077,358.851837 276.327545,363.843933   C274.551849,369.017181 269.713562,367.783325 266.062988,367.812622   C253.908859,367.910309 241.746948,367.589020 229.595062,367.205414   C222.961136,366.995941 216.910675,364.571808 211.265686,361.188751   C210.001968,360.431427 208.905655,359.351349 207.847122,358.303802   C205.405762,355.887726 204.812424,353.171265 206.947906,350.250122   C209.147598,347.241119 211.878387,347.888519 214.447174,349.547028   C224.131516,355.799622 234.762161,356.494415 245.706436,354.788727   C256.213989,353.151093 263.929993,348.005402 266.938721,337.099854   C268.858856,330.140045 271.925964,329.240051 277.225128,334.079163  z"
     id="path5"
     style="fill:url(#linearGradient354)" /><path
     fill="#000000"
     opacity="1.000000"
     stroke="none"
     d=" M295.339661,366.208221   C289.112305,362.231781 286.465851,356.432037 285.154572,349.885956   C284.502106,346.628815 286.016205,344.226227 289.104370,343.324219   C292.078857,342.455383 294.624542,343.868225 295.394989,346.769135   C297.229919,353.678223 301.471039,356.460114 308.535431,356.269531   C312.323181,356.167358 314.830475,358.948547 314.642548,362.781097   C314.456604,366.572205 311.331665,367.400940 308.072144,367.304443   C303.940063,367.182129 299.734406,367.938568 295.339661,366.208221  z"
     id="path6"
     style="fill:url(#linearGradient354)" /><path
     fill="#000000"
     opacity="1.000000"
     stroke="none"
     d=" M347.269958,253.530304   C351.972992,253.448318 354.535217,255.659134 355.198303,259.840729   C355.769043,263.440094 354.592438,266.415588 351.149963,268.142670   C347.636383,269.905426 344.601593,268.815521 342.202240,266.121735   C339.699402,263.311829 339.770935,260.058594 341.636810,256.885254   C342.796051,254.913696 344.592499,253.795334 347.269958,253.530304  z"
     id="path7"
     style="fill:url(#linearGradient354)" /><path
     fill="#000000"
     opacity="1.000000"
     stroke="none"
     d=" M168.165558,97.148178   C165.750961,96.491539 164.158112,95.244972 163.609360,93.221832   C162.705551,89.889748 163.366486,86.822136 166.732315,85.256157   C169.664658,83.891869 172.279419,84.862831 173.949265,87.662155   C175.862839,90.870056 175.132843,93.686615 172.230377,95.927063   C171.178986,96.738632 169.947983,97.258385 168.165558,97.148178  z"
     id="path8"
     style="fill:url(#linearGradient354)" /><path
     fill="#000000"
     opacity="1.000000"
     stroke="none"
     d=" M386.660126,172.734497   C383.845398,173.634125 383.026306,175.324310 383.069061,177.817810   C383.122162,180.914597 381.466736,182.923080 378.356445,183.208008   C374.874481,183.526978 373.296936,181.191925 372.532227,178.220718   C370.845886,171.668839 376.079468,163.842087 382.716858,162.891525   C385.089478,162.551697 387.061432,163.298615 388.247803,165.386429   C389.751221,168.032303 389.357086,170.488785 386.660126,172.734497  z"
     id="path9"
     style="fill:url(#linearGradient354)" /><path
     fill="#000000"
     opacity="1.000000"
     stroke="none"
     d=" M355.677338,178.172089   C355.704681,175.248611 354.299805,173.960785 352.073639,173.023804   C349.230164,171.827011 348.121887,169.520996 349.207855,166.544540   C350.394470,163.292236 352.816406,162.708023 356.029785,163.453110   C362.767365,165.015335 367.256561,171.501816 365.690796,177.916672   C365.039368,180.585403 363.809814,183.061676 360.577057,183.174271   C357.565460,183.279129 356.173096,181.331787 355.677338,178.172089  z"
     id="path10"
     style="fill:url(#linearGradient354)" /><path
     fill="#000000"
     opacity="1.000000"
     stroke="none"
     d=" M395.256958,123.559433   C397.818085,127.608986 396.350800,130.400604 392.769897,131.847504   C389.758911,133.064133 387.730530,131.049057 386.595184,128.324722   C385.811493,126.444145 386.269226,124.667442 387.770233,123.323975   C390.117249,121.223274 392.570892,121.364494 395.256958,123.559433  z"
     id="path11"
     style="fill:url(#linearGradient354)" /><path
     fill="#000000"
     opacity="1.000000"
     stroke="none"
     d=" M345.317474,131.952423   C341.407166,128.761475 340.727081,125.527779 343.222778,123.123169   C345.554474,120.876587 348.048859,121.273972 350.298096,123.218712   C351.928650,124.628532 352.448029,126.568497 351.544861,128.608932   C350.442963,131.098328 348.602142,132.537155 345.317474,131.952423  z"
     id="path12"
     style="fill:url(#linearGradient354)" /></g>
</svg>
