<?xml version="1.0" encoding="UTF-8" standalone="no"?>
<svg
   version="1.1"
   id="Layer_1"
   x="0px"
   y="0px"
   width="410.61163"
   viewBox="0 0 410.61163 400.77121"
   enable-background="new 0 0 560 480"
   xml:space="preserve"
   sodipodi:docname="marc-logo-new-darkgreen.svg"
   height="400.77121"
   inkscape:version="1.3.2 (091e20ef0f, 2023-11-25, custom)"
   xmlns:inkscape="http://www.inkscape.org/namespaces/inkscape"
   xmlns:sodipodi="http://sodipodi.sourceforge.net/DTD/sodipodi-0.dtd"
   xmlns:xlink="http://www.w3.org/1999/xlink"
   xmlns="http://www.w3.org/2000/svg"
   xmlns:svg="http://www.w3.org/2000/svg"><sodipodi:namedview
   id="namedview1"
   pagecolor="#ffffff"
   bordercolor="#cccccc"
   borderopacity="1"
   inkscape:showpageshadow="0"
   inkscape:pageopacity="1"
   inkscape:pagecheckerboard="0"
   inkscape:deskcolor="#d1d1d1"
   inkscape:zoom="1.81875"
   inkscape:cx="209.20962"
   inkscape:cy="204.26117"
   inkscape:window-width="1918"
   inkscape:window-height="1058"
   inkscape:window-x="0"
   inkscape:window-y="20"
   inkscape:window-maximized="1"
   inkscape:current-layer="Layer_1" /><defs
   id="defs12"><linearGradient
     id="linearGradient353"><stop
       style="stop-color:#243c32;stop-opacity:0.26666668;"
       offset="0"
       id="stop353" /><stop
       style="stop-color:#26865b;stop-opacity:1;"
       offset="0.5"
       id="stop355" /><stop
       style="stop-color:#a8cebd;stop-opacity:1;"
       offset="1"
       id="stop354" /></linearGradient><linearGradient
     xlink:href="#linearGradient353"
     id="linearGradient354"
     x1="70.84388"
     y1="236.08867"
     x2="481.45551"
     y2="236.08867"
     gradientUnits="userSpaceOnUse" /></defs>











<g
   id="g353"
   style="fill:url(#linearGradient354)"
   transform="translate(-70.84388,-35.703067)"><path
     fill="#000000"
     opacity="1"
     stroke="none"
     d="m 242.60565,227.72089 c 17.608,-4.051 26.81064,-16.50351 33.23874,-31.59006 2.16406,-5.0791 -2.40323,-3.78807 -4.82202,-3.84743 -20.33394,-0.49884 -36.68804,-8.79082 -48.70564,-25.17059 -8.36434,-11.40045 -12.16799,-24.66658 -14.68126,-38.39145 -2.25125,-12.29398 -4.44908,-24.60687 -12.22112,-35.023942 -5.14183,-6.891754 -11.50639,-11.915588 -19.77585,-14.519142 -3.17997,-1.00119 -6.18715,-0.849182 -9.30043,0.130402 -9.71473,3.056717 -12.68239,9.969566 -7.96246,19.020691 1.6147,3.096381 3.58446,6.006721 5.37027,9.014961 3.0302,5.10445 3.752,10.34051 0.46027,15.57959 -3.36626,5.35768 -8.29786,7.44427 -14.54949,6.47343 -2.54979,-0.39595 -4.77545,-0.31511 -6.64438,2.13279 -17.93573,23.49198 -28.53773,49.89234 -28.35676,79.49308 0.19768,32.33245 12.74899,60.25775 34.98468,83.66269 6.1833,6.50846 13.13722,12.28498 19.74101,18.39362 0.73302,0.67807 1.56216,1.2666 2.22012,2.00888 2.33257,2.63153 3.41094,5.47354 0.59621,8.40356 -2.59851,2.70499 -5.46611,2.11286 -8.04128,-0.0204 -4.36129,-3.61283 -8.65118,-7.31766 -12.86343,-11.10361 C 134.18649,296.99284 116.84926,281.79194 102.50504,263.70582 81.880463,237.701 70.036247,208.15164 70.886765,174.6972 c 0.636604,-25.04053 8.317787,-48.11098 24.878898,-67.58388 1.39241,-1.63723 3.014176,-3.11688 4.695187,-4.46262 2.67659,-2.14275 5.5439,-2.41033 8.07225,0.19312 2.64161,2.72008 1.87112,5.51786 -0.49002,7.95264 -6.19086,6.38397 -11.605199,13.33198 -15.452168,21.37858 -13.713219,28.68355 -13.796311,57.82123 -2.541947,87.2154 5.206795,13.59913 12.350335,26.12489 22.476965,38.4084 -5.4472,-15.86665 -9.16729,-30.68469 -9.02865,-46.41719 0.26252,-29.7925 9.27626,-56.58917 26.04798,-80.97408 1.60334,-2.33116 3.41258,-4.52018 5.03372,-6.83984 0.94801,-1.3565 2.50514,-2.8864 2.42679,-4.26064 -0.40839,-7.16142 3.76121,-12.89218 5.92277,-19.309406 -3.56466,-1.74324 -7.09497,-1.433502 -10.52656,-1.742187 -1.7934,-0.161324 -3.90164,0.03402 -4.70883,-2.079476 -0.89101,-2.333015 1.16033,-3.240486 2.58711,-4.260185 2.84166,-2.030899 5.63577,-4.202911 8.71571,-5.804878 3.0696,-1.596588 3.53076,-3.143738 1.83275,-6.205811 -4.4642,-8.050415 -4.87196,-16.396648 -1.17076,-24.960003 3.34434,-7.737762 5.99756,-8.870491 13.53776,-5.042194 1.61031,-2.808788 3.17148,-5.682499 4.87778,-8.467278 1.84267,-3.007347 4.28481,-5.252193 8.1454,-4.585231 3.51535,0.607315 4.73493,3.278266 5.2851,6.457397 0.0982,0.56715 0.66191,1.053726 1.04007,1.621639 2.46545,-0.835659 3.2136,-3.042282 4.49745,-4.684932 2.27382,-2.909268 4.89122,-5.398365 8.82608,-4.259484 3.86359,1.118256 4.30659,4.648216 4.46902,8.096489 0.0605,1.285507 -0.26793,2.674645 0.85003,3.795098 2.78541,0.263687 3.975,-2.172322 5.83126,-3.382878 4.77337,-3.112953 8.56613,-2.024765 10.80988,3.222386 4.01613,9.391937 1.60412,21.556377 -5.67696,28.745815 -0.92752,0.91584 -2.23736,1.510933 -2.67102,3.22908 0.29286,0.525742 0.57045,1.332039 1.09413,1.918617 9.91355,11.104554 14.35741,24.512222 16.77436,38.886342 2.10316,12.50794 5.12285,24.74321 11.58592,35.91233 10.45561,18.06877 28.89372,24.83023 47.25416,24.19654 3.74732,-0.12931 4.35196,-2.55206 4.63352,-5.76243 1.26273,-14.39867 -3.60147,-27.1772 -9.96112,-39.63504 -11.05512,-21.65581 -28.28557,-36.271371 -50.86682,-44.82789 -1.55629,-0.589714 -3.19489,-0.98513 -4.70401,-1.671425 -2.73302,-1.242882 -5.10504,-3.029594 -4.18141,-6.457214 0.98394,-3.651467 3.86558,-4.960015 7.39794,-4.296356 5.94072,1.116149 11.54644,3.433136 16.79377,6.286056 32.29707,17.559659 51.61692,44.265759 56.56324,80.994309 0.44062,3.27158 -0.45266,6.66417 0.88025,9.88908 2.69962,0.98143 4.54236,-0.87399 6.4368,-1.9657 6.09512,-3.51235 11.43308,-8.00584 16.40506,-12.99429 2.45069,-2.45883 5.28003,-5.18376 9.0679,-2.07513 2.82123,2.31534 2.36353,6.38508 -1.03405,10.09373 -7.99393,8.7258 -17.25589,15.71341 -28.47217,19.71585 -3.89835,1.3911 -5.72644,3.80829 -6.96341,7.64385 -5.62534,17.44287 -15.17716,32.08487 -32.46233,39.80407 -29.06149,12.97838 -59.69864,-0.51991 -69.84678,-34.70211 -1.80768,-6.08886 -2.65032,-12.35323 -2.22004,-18.75153 0.22849,-3.39763 0.99497,-6.56404 4.91867,-7.02899 4.3863,-0.51979 5.74709,2.8456 6.28515,6.27772 0.94801,6.04737 0.15396,12.24972 2.34895,18.23815 4.31349,11.76823 11.11351,21.1347 22.93854,26.28363 7.14439,3.11087 14.51318,3.29957 22.45962,2.05762 M 179.39133,53.837509 c -2.10138,2.148373 -4.18116,4.323193 -7.3539,4.856297 -3.61037,0.606632 -5.38319,-2.828896 -8.61975,-4.179188 -2.44858,7.001758 -6.30902,11.461525 -14.0526,7.452984 -1.5634,2.382114 -1.46338,4.55952 -1.29816,6.685268 0.38857,4.998894 2.04238,5.852547 6.35076,3.505829 2.18124,-1.188087 4.37108,-2.411568 6.6776,-3.309219 7.91781,-3.081429 15.69816,-1.755234 23.34634,1.109855 3.82829,1.434121 7.23573,1.009499 10.05168,-2.016052 2.58308,-2.775368 5.00177,-5.709122 3.65561,-9.987915 -2.05222,-0.133537 -3.41145,0.944138 -4.89908,1.605999 -6.20119,2.758984 -9.04986,1.701397 -11.86508,-4.423386 -0.31641,-0.688369 -0.33583,-1.736068 -1.99342,-1.300472 M 149.33,112.93336 c -1.09875,1.97729 -1.25952,3.74148 1.09068,4.96978 1.3534,0.70734 2.76049,0.6354 3.49488,-0.65535 1.78552,-3.13822 -0.49567,-5.07049 -2.12581,-7.10604 -1.47098,0.31704 -1.56531,1.49242 -2.45975,2.79161 z"
     id="path1"
     style="fill:#243c34;fill-opacity:1" /><path
     fill="#000000"
     opacity="1"
     stroke="none"
     d="m 366.6362,341.65985 c -6.93097,6.02301 -13.57907,11.83017 -20.25265,17.60785 -10.26493,8.88693 -18.54169,6.8212 -23.39185,-5.87338 -4.3634,-11.42066 -2.2348,-22.6333 1.42764,-33.69492 5.03247,-15.19946 14.83646,-26.99539 26.92343,-37.13 4.08036,-3.42127 8.02689,-7.00495 11.97199,-10.58344 1.84625,-1.67462 2.92682,-3.42053 1.05243,-6.02478 -2.04071,-2.8353 0.6123,-4.84546 2.39377,-7.27087 -11.49656,-9.74791 -24.25791,-14.82875 -39.1615,-12.88327 -4.59742,0.60014 -7.51368,-0.45859 -10.24979,-4.11232 -4.93085,-6.5846 -11.41284,-10.94275 -20.01624,-9.97255 -6.99334,0.78863 -12.6184,6.11819 -13.87899,12.0372 -1.54813,7.26921 2.06753,16.4122 8.41461,20.60928 4.84192,3.20185 10.07114,5.15409 16.05151,3.56326 0.9509,-0.25296 1.98197,-0.22387 2.97852,-0.28195 2.62582,-0.15304 5.23816,0.0587 6.10476,3.06687 0.93387,3.24158 -0.77584,5.54263 -3.54724,6.91812 -5.46664,2.71316 -11.2901,3.25638 -16.97317,1.13263 -3.926,-1.4671 -6.97641,-0.79843 -10.21964,1.50641 -5.18066,3.68173 -11.05001,5.31341 -17.43139,5.10263 -5.99332,-0.198 -11.99228,-0.24497 -17.98336,-0.48996 -26.18078,-1.07056 -57.10521,24.87991 -56.55621,57.78668 0.18775,11.25296 5.46213,19.68918 14.75971,25.70483 12.26516,7.9357 25.94789,10.99393 40.35166,11.28815 17.81705,0.36401 35.66242,-0.51392 53.45133,1.02695 20.62842,1.7868 37.61227,9.65597 47.35593,29.14392 1.1076,2.21527 1.91854,4.62759 2.51629,7.03564 0.62348,2.51172 -0.35974,4.73792 -2.67782,5.89734 -2.48786,1.24426 -4.91831,0.77057 -6.69678,-1.51709 -0.80597,-1.03671 -1.51657,-2.21118 -1.99158,-3.43167 -4.58328,-11.77573 -13.87729,-18.33975 -25.06598,-22.86615 -2.91507,-1.17926 -5.31155,-0.74914 -7.83194,1.28287 -9.98291,8.04895 -18.177,17.54638 -24.47238,28.73587 -1.78637,3.17511 -3.85269,6.27978 -6.26675,8.99313 -3.18787,3.58289 -7.06494,3.31641 -9.59244,-0.74014 -4.93524,-7.92108 -9.74246,-15.89746 -15.79683,-23.05719 -2.09091,-2.47266 -2.08827,-5.29535 0.41072,-7.60703 2.55052,-2.35934 5.2493,-1.73132 7.66083,0.29453 3.86633,3.24793 6.81802,7.28064 9.46728,11.54529 0.94876,1.52731 1.90525,3.04977 3.3154,5.30594 6.84079,-9.67484 13.11472,-18.98343 21.11731,-27.70276 -3.91125,0 -7.82354,-0.0583 -11.73361,0.0101 -17.1546,0.30017 -34.29745,0.56006 -51.27679,-2.65952 -12.13196,-2.30047 -23.51462,-6.42343 -33.07264,-14.39621 -14.66691,-12.23446 -18.27069,-28.48471 -13.9998,-46.13617 7.1727,-29.64468 26.25687,-47.87185 56.13359,-54.4201 7.3741,-1.61624 14.94115,-0.72351 22.43085,-0.57056 3.98914,0.0815 8.03003,0.58133 11.9408,-0.48877 4.94665,-1.3536 5.70941,-3.10971 2.87359,-7.38336 -4.93796,-7.44153 -6.93612,-15.25026 -4.95739,-24.17662 2.53326,-11.42795 20.67166,-29.06258 32.18997,-30.78432 9.27026,-1.38571 20.08172,4.20348 24.82174,14.22405 2.94965,6.23565 6.53794,9.26565 13.57084,10.11908 12.17361,1.4772 22.81198,6.95824 31.76342,15.55311 7.3664,7.07297 8.05555,11.92838 2.88642,20.76474 -4.7453,8.11182 -11.86118,13.88166 -18.99308,19.63721 -13.09552,10.56827 -22.73333,23.34543 -26.03988,40.22665 -1.03595,5.28894 -1.11423,10.58295 0.24344,15.84113 1.44409,5.5928 2.88943,6.09769 7.24679,2.314 11.44403,-9.93744 22.79053,-19.98746 34.25925,-29.89615 9.32596,-8.05741 18.77106,-15.97684 28.16919,-23.95056 0.63443,-0.53824 1.30108,-1.0427 1.98199,-1.52115 2.71378,-1.90686 5.60682,-2.68576 8.0857,0.0766 2.57302,2.8673 1.97137,5.91278 -0.76914,8.37219 -4.83212,4.33651 -9.7698,8.55685 -14.70837,12.77304 -10.13291,8.65069 -20.2956,17.26651 -30.71747,26.12573 z"
     id="path2"
     style="fill:#243c34;fill-opacity:1" /><path
     fill="#000000"
     opacity="1"
     stroke="none"
     d="m 327.14984,68.752991 c 6.17264,7.411857 11.22296,8.010292 18.53861,2.484565 12.37225,-9.34513 34.56158,-9.80299 47.49682,0.213036 8.85398,6.855835 18.57822,1.615402 21.1969,-7.216583 1.37686,-4.643788 2.16284,-9.361965 2.5174,-14.204525 0.22741,-3.105976 0.596,-6.630074 4.79165,-7.149971 3.96997,-0.491924 5.40799,2.390732 6.81702,5.388126 6.49799,13.823128 10.21323,27.863228 3.22003,42.961815 3.97141,1.423042 7.53034,2.669762 11.06424,3.983826 0.92978,0.345749 1.80457,0.861374 2.66657,1.364143 10.97754,6.402497 11.8796,10.608277 4.60272,20.821417 -9.10602,12.78034 -20.83063,19.46691 -36.8862,15.64829 -3.11725,-0.74141 -3.81754,0.77855 -4.44715,3.06217 -3.10433,11.25989 -5.29351,22.41098 -3.42712,34.37765 2.78998,17.88819 -11.46902,30.23987 -29.03293,25.93076 -5.14276,-1.26174 -10.08722,-1.25768 -15.24762,0.088 -16.50705,4.30464 -31.92209,-9.4532 -28.79626,-26.19021 2.18905,-11.72136 0.34485,-22.79727 -2.48667,-33.99295 -0.63809,-2.52306 -1.86886,-3.2739 -4.27093,-2.79366 -20.51349,4.1012 -32.86658,-8.96094 -40.3671,-23.16336 -1.58706,-3.00512 -0.50781,-5.45794 1.60102,-7.68517 4.84204,-5.11391 10.75595,-8.370311 17.60528,-9.84711 2.36002,-0.50885 3.86606,-1.20414 2.61774,-3.938118 -6.1366,-13.439751 -2.19425,-26.075695 3.30856,-38.470234 1.43927,-3.241806 2.10059,-8.074352 7.42255,-7.331035 5.2828,0.737846 4.60303,5.455196 5.17138,9.037521 0.88462,5.57579 1.05338,11.297916 4.32349,16.621567 m 68.50409,74.537079 c 4.10162,-13.18887 5.06445,-26.35536 0.11523,-39.60657 -0.85488,-2.28897 -0.89849,-4.897482 -1.20336,-7.372373 -1.12897,-9.165192 -5.13504,-16.193177 -14.49634,-18.949845 -7.70212,-2.268089 -15.47016,-2.092277 -23.0889,0.497856 -6.16013,2.094231 -9.9856,6.484902 -11.52921,12.763352 -0.94964,3.862633 -0.91012,8.136848 -2.57461,11.6251 -6.0083,12.59153 -4.84961,25.01219 -1.03491,37.89241 2.7738,9.36563 5.02411,19.01292 1.64303,28.92567 -0.66031,1.93592 -0.36367,4.32831 -0.0516,6.44274 1.20074,8.13569 8.3938,12.50041 16.07644,9.75139 6.59476,-2.35976 13.02048,-1.92713 19.53486,0.35634 5.8497,2.05041 11.29678,-0.29961 14.27365,-5.77465 2.04293,-3.75735 2.20523,-8.03754 1.07406,-11.69238 -2.56839,-8.29865 -1.04199,-16.11159 1.26169,-24.85904 m 25.80795,-20.4501 c 7.93076,0.0116 13.35572,-4.4553 17.89844,-10.25959 3.19016,-4.07614 2.75223,-5.23401 -1.86963,-7.3764 -8.10943,-3.75903 -15.23431,-1.17357 -22.80713,2.34869 -4.97149,2.31234 -5.91168,4.78559 -4.46466,9.46238 1.66013,5.36549 6.1055,5.35171 11.24298,5.82492 m -92.67282,-9.80736 c 0.33267,-1.68787 0.60721,-3.1607 -1.62985,-4.01515 -2.78726,-1.06458 -5.40421,-2.5704 -8.11093,-3.85135 -6.41531,-3.03604 -12.61637,-1.99478 -18.72403,0.99353 -2.14652,1.05024 -3.17325,2.336 -1.53653,4.66289 3.30884,4.7042 7.12973,8.81169 12.58212,11.04343 9.15381,3.74678 15.68076,0.68558 17.41922,-8.83335 m 89.21366,-22.55636 c 4.59799,-5.546273 7.26434,-11.66938 6.02853,-19.024506 -3.69821,7.551621 -9.12012,12.781914 -17.35086,14.741051 -1.80866,0.430511 -2.66068,1.560165 -2.21613,3.238693 0.7006,2.645149 0.44999,5.655388 2.64908,7.881455 4.62964,-0.303246 7.44568,-3.43364 10.88938,-6.836693 m -87.9047,-4.884636 c -7.08121,-2.274651 -11.36481,-7.448609 -14.21921,-14.784081 -2.46932,11.330033 6.18448,25.009758 15.75788,26.039017 1.51822,-1.57856 0.97406,-3.768219 1.59866,-5.620918 0.83759,-2.48452 0.72931,-4.639725 -3.13733,-5.634018 z"
     id="path3"
     style="fill:#243c34;fill-opacity:1" /><path
     fill="#000000"
     opacity="1"
     stroke="none"
     d="m 432.97382,265.5835 c 0.27429,-6.3425 3.69079,-11.30669 5.26867,-16.90018 8.33399,-29.5436 1.52317,-55.53101 -17.83056,-78.73024 -2.34549,-2.81149 -4.91446,-5.43971 -7.20246,-8.29506 -2.14184,-2.673 -2.33688,-5.50749 0.33789,-8.01996 2.6778,-2.51533 5.31702,-1.50256 7.52951,0.62415 17.89746,17.20372 29.35187,37.59837 31.35935,62.80731 0.48556,6.097 -0.18195,12.16373 0.0821,19.13583 9.2243,-15.34979 15.02969,-30.94357 17.20047,-47.8387 2.9602,-23.03935 -2.30746,-44.24443 -14.33655,-63.93094 -0.60516,-0.99039 -1.16412,-2.02069 -1.62823,-3.08324 -1.09912,-2.51636 -1.19535,-4.921 1.38464,-6.63072 2.58804,-1.71501 5.1774,-1.37869 7.24136,0.81947 3.67893,3.91817 6.41401,8.52061 8.53202,13.4266 18.03762,41.78099 12.28982,81.13194 -12.33844,118.46307 -4.68289,7.09821 -10.10923,13.65721 -16.07465,19.71514 -3.99347,4.05532 -5.99975,3.67288 -9.52508,-1.56253 z"
     id="path4"
     style="fill:#243c34;fill-opacity:1" /><path
     fill="#000000"
     opacity="1"
     stroke="none"
     d="m 277.22513,334.07916 c 2.05014,8.51953 -2.46274,14.64652 -6.71225,21.02939 2.92782,2.39981 7.5282,3.74329 5.81466,8.73538 -1.77569,5.17325 -6.61398,3.93939 -10.26455,3.96869 -12.15413,0.0977 -24.31604,-0.2236 -36.46793,-0.60721 -6.63392,-0.20947 -12.68439,-2.6336 -18.32937,-6.01666 -1.26372,-0.75732 -2.36004,-1.8374 -3.41857,-2.88495 -2.44136,-2.41607 -3.0347,-5.13254 -0.89921,-8.05368 2.19969,-3.009 4.93048,-2.3616 7.49926,-0.70309 9.68435,6.25259 20.31499,6.94738 31.25927,5.2417 10.50755,-1.63764 18.22355,-6.78333 21.23228,-17.68888 1.92014,-6.95981 4.98724,-7.8598 10.28641,-3.02069 z"
     id="path5"
     style="fill:#243c34;fill-opacity:1" /><path
     fill="#000000"
     opacity="1"
     stroke="none"
     d="m 295.33966,366.20822 c -6.22736,-3.97644 -8.87381,-9.77618 -10.18509,-16.32226 -0.65246,-3.25715 0.86164,-5.65973 3.9498,-6.56174 2.97449,-0.86884 5.52017,0.544 6.29062,3.44491 1.83493,6.90909 6.07605,9.69098 13.14044,9.5004 3.78775,-0.10217 6.29504,2.67902 6.10712,6.51157 -0.18595,3.7911 -3.31089,4.61984 -6.57041,4.52334 -4.13208,-0.12231 -8.33773,0.63413 -12.73248,-1.09622 z"
     id="path6"
     style="fill:#243c34;fill-opacity:1" /><path
     fill="#000000"
     opacity="1"
     stroke="none"
     d="m 347.26996,253.5303 c 4.70303,-0.082 7.26526,2.12883 7.92834,6.31043 0.57074,3.59936 -0.60586,6.57486 -4.04834,8.30194 -3.51358,1.76276 -6.54837,0.67285 -8.94772,-2.02094 -2.50284,-2.8099 -2.43131,-6.06314 -0.56543,-9.23648 1.15924,-1.97155 2.95569,-3.08992 5.63315,-3.35495 z"
     id="path7"
     style="fill:#243c34;fill-opacity:1" /><path
     fill="#000000"
     opacity="1"
     stroke="none"
     d="m 168.16556,97.148178 c -2.4146,-0.656639 -4.00745,-1.903206 -4.5562,-3.926346 -0.90381,-3.332084 -0.24287,-6.399696 3.12295,-7.965675 2.93235,-1.364288 5.54711,-0.393326 7.21695,2.405998 1.91358,3.207901 1.18358,6.02446 -1.71888,8.264908 -1.05139,0.811569 -2.2824,1.331322 -4.06482,1.221115 z"
     id="path8"
     style="fill:#243c34;fill-opacity:1" /><path
     fill="#000000"
     opacity="1"
     stroke="none"
     d="m 386.66013,172.7345 c -2.81473,0.89962 -3.63382,2.58981 -3.59107,5.08331 0.0531,3.09679 -1.60232,5.10527 -4.71262,5.3902 -3.48196,0.31897 -5.0595,-2.01609 -5.82421,-4.98729 -1.68634,-6.55188 3.54724,-14.37863 10.18463,-15.3292 2.37262,-0.33982 4.34457,0.40709 5.53094,2.49491 1.50342,2.64587 1.10929,5.10235 -1.58767,7.34807 z"
     id="path9"
     style="fill:#243c34;fill-opacity:1" /><path
     fill="#000000"
     opacity="1"
     stroke="none"
     d="m 355.67734,178.17209 c 0.0273,-2.92348 -1.37754,-4.21131 -3.6037,-5.14829 -2.84348,-1.19679 -3.95175,-3.5028 -2.86579,-6.47926 1.18662,-3.2523 3.60856,-3.83652 6.82193,-3.09143 6.73758,1.56222 11.22678,8.04871 9.66102,14.46356 -0.65143,2.66873 -1.88099,5.14501 -5.11374,5.2576 -3.0116,0.10486 -4.40396,-1.84248 -4.89972,-5.00218 z"
     id="path10"
     style="fill:#243c34;fill-opacity:1" /><path
     fill="#000000"
     opacity="1"
     stroke="none"
     d="m 395.25696,123.55943 c 2.56112,4.04956 1.09384,6.84117 -2.48706,8.28807 -3.01099,1.21663 -5.03937,-0.79844 -6.17472,-3.52278 -0.78369,-1.88057 -0.32595,-3.65728 1.17505,-5.00074 2.34702,-2.10071 4.80066,-1.95949 7.48673,0.23545 z"
     id="path11"
     style="fill:#243c34;fill-opacity:1" /><path
     fill="#000000"
     opacity="1"
     stroke="none"
     d="m 345.31747,131.95242 c -3.9103,-3.19095 -4.59039,-6.42464 -2.09469,-8.82925 2.33169,-2.24658 4.82608,-1.8492 7.07532,0.0955 1.63055,1.40982 2.14993,3.34979 1.24676,5.39022 -1.1019,2.4894 -2.94272,3.92823 -6.22739,3.34349 z"
     id="path12"
     style="fill:#243c34;fill-opacity:1" /></g>
</svg>
